
<svg width="24" height="24" viewBox="0 0 24 24" fill="none" xmlns="http://www.w3.org/2000/svg">
<g clip-path="url(#clip0)">
<path d="M5 22H0V10H5V22ZM22.615 13.588C21.758 13.473 22.037 12.854 22.646 12.666C23.167 12.506 24 12.166 24 11.156C24 10.484 23.5 9.594 21.729 9.666C20.501 9.716 18.063 9.468 16.75 8.781C17.656 5.125 17.438 0 15.062 0C13.468 0 13.166 1.807 12.687 3.469C11.466 7.711 9.375 9.486 7 10.354V21.232C11.382 21.933 13.345 24 17.505 24C20.703 24 22.357 22.265 22.357 21.334C22.357 20.999 22.085 20.761 21.397 20.708C20.586 20.646 20.663 19.896 21.428 19.755C22.696 19.521 23.254 18.841 23.254 18.212C23.254 17.683 22.858 17.19 22.156 17.031C21.319 16.842 21.492 16.274 22.187 16.219C23.32 16.129 23.875 15.455 23.875 14.809C23.875 14.244 23.451 13.7 22.615 13.588V13.588Z" fill="#f68b1e"/>
</g>
<defs>
<clipPath id="clip0">
<rect width="24" height="24" fill="white"/>
</clipPath>
</defs>
</svg>
