<svg width="808" height="569" viewBox="0 0 808 569" fill="none" xmlns="http://www.w3.org/2000/svg">
<style>
    #question-mark{
     transform: translateY(-7%);
     animation: trans-animation 0.4s alternate infinite;   
    }
    @keyframes trans-animation{
        100%{
            transform: translateY(0);
        }
    }
</style>
<g id="quiz" clip-path="url(#clip0)">
<path id="Vector" d="M675.537 565.324C700.154 557.936 726.325 550.232 745.848 532.67C763.294 516.976 775.072 493.011 767.845 469.475C760.632 445.987 739.028 430.326 716.723 422.536C704.073 418.118 690.838 415.667 677.607 413.742C663.225 411.649 648.78 409.934 634.341 408.283C575.877 401.601 517.192 397.519 458.288 396.038C429.223 395.306 400.163 395.324 371.094 395.745C345.133 396.122 317.791 396.113 293.707 385.087C274.979 376.513 257.981 360.914 252.762 340.415C246.739 316.753 257.85 292.656 273.788 275.518C282.189 266.485 292.008 258.882 302.137 251.891C313.126 244.307 324.498 237.26 336.116 230.682C358.998 217.733 382.921 206.712 407.636 197.734C419.828 193.304 432.202 189.482 444.682 185.956C455.221 182.979 465.793 179.998 475.978 175.941C495.668 168.099 514.395 154.816 519.401 133.04C524.146 112.401 516.146 89.9959 502.121 74.6636C485.894 56.9253 461.428 49.1494 437.972 47.8913C411.639 46.4788 385.913 53.0645 361.162 61.4226C334.764 70.3372 308.934 80.5873 281.978 87.808C255.247 94.9613 227.999 100.023 200.481 102.946C187.011 104.379 173.133 105.998 159.582 104.9C148.225 103.981 136.926 100.643 128.556 92.589C121.379 85.683 117.104 76.1918 118.574 66.1757C118.841 64.3565 121.606 65.1299 121.341 66.9381C119.552 79.1305 127.845 90.3654 138.066 96.1205C149.878 102.772 164.251 102.781 177.402 102.02C205.917 100.299 234.238 96.2081 262.073 89.7891C289.424 83.5466 315.799 74.6227 342.143 65.09C367.163 56.0363 392.743 47.1999 419.473 45.2389C442.666 43.5374 467.064 46.9138 487.27 59.0257C505.028 69.6704 518.086 87.4223 522.247 107.793C526.313 127.699 520.682 147.735 505.602 161.626C489.99 176.008 468.582 182.157 448.632 187.82C423.328 195.003 398.567 203.399 374.6 214.301C350.306 225.32 327.007 238.409 304.96 253.424C283.68 267.955 262.679 286.24 255.948 312.164C252.813 324.24 253.392 337.047 258.638 348.453C263.302 358.595 270.984 367.126 279.933 373.706C301.285 389.406 328.195 392.63 353.986 392.95C382.953 393.311 411.92 392.334 440.896 392.809C499.948 393.777 558.88 397.369 617.69 403.584C632.427 405.143 647.144 406.866 661.844 408.753C675.065 410.45 688.331 412.137 701.33 415.152C724.443 420.513 746.934 430.821 761.3 450.403C767.675 458.891 771.625 468.95 772.728 479.506C773.734 490.521 771.035 501.557 766.051 511.357C755.019 533.046 734.356 546.842 712.412 555.905C700.659 560.76 688.467 564.437 676.3 568.089C674.527 568.621 673.77 565.854 675.537 565.324L675.537 565.324Z" fill="#F2F2F2"/>
<path id="Vector_2" d="M120.427 89.375C133.106 89.375 143.385 79.1039 143.385 66.4338C143.385 53.7638 133.106 43.4926 120.427 43.4926C107.747 43.4926 97.4687 53.7638 97.4687 66.4338C97.4687 79.1039 107.747 89.375 120.427 89.375Z" fill="#F2F2F2"/>
<path id="Vector_3" d="M279.697 132.868C292.377 132.868 302.655 122.597 302.655 109.926C302.655 97.2564 292.377 86.9853 279.697 86.9853C267.018 86.9853 256.739 97.2564 256.739 109.926C256.739 122.597 267.018 132.868 279.697 132.868Z" fill="#F2F2F2"/>
<path id="Vector_4" d="M414.575 45.8824C427.254 45.8824 437.533 35.6112 437.533 22.9412C437.533 10.2711 427.254 0 414.575 0C401.896 0 391.617 10.2711 391.617 22.9412C391.617 35.6112 401.896 45.8824 414.575 45.8824Z" fill="#F2F2F2"/>
<path id="Vector_5" d="M498.754 143.382C511.434 143.382 521.712 133.111 521.712 120.441C521.712 107.771 511.434 97.5 498.754 97.5C486.075 97.5 475.796 107.771 475.796 120.441C475.796 133.111 486.075 143.382 498.754 143.382Z" fill="#F2F2F2"/>
<path id="Vector_6" d="M384.921 256.176C397.6 256.176 407.879 245.905 407.879 233.235C407.879 220.565 397.6 210.294 384.921 210.294C372.242 210.294 361.963 220.565 361.963 233.235C361.963 245.905 372.242 256.176 384.921 256.176Z" fill="#F2F2F2"/>
<path id="Vector_7" d="M240.477 310.662C253.157 310.662 263.435 300.391 263.435 287.721C263.435 275.051 253.157 264.779 240.477 264.779C227.798 264.779 217.52 275.051 217.52 287.721C217.52 300.391 227.798 310.662 240.477 310.662Z" fill="#F2F2F2"/>
<path id="Vector_8" d="M393.53 395.735C406.21 395.735 416.488 385.464 416.488 372.794C416.488 360.124 406.21 349.853 393.53 349.853C380.851 349.853 370.572 360.124 370.572 372.794C370.572 385.464 380.851 395.735 393.53 395.735Z" fill="#F2F2F2"/>
<path id="Vector_9" d="M558.062 443.529C570.742 443.529 581.02 433.258 581.02 420.588C581.02 407.918 570.742 397.647 558.062 397.647C545.383 397.647 535.104 407.918 535.104 420.588C535.104 433.258 545.383 443.529 558.062 443.529Z" fill="#F2F2F2"/>
<path id="Vector_10" d="M750.335 433.015C763.014 433.015 773.293 422.744 773.293 410.074C773.293 397.403 763.014 387.132 750.335 387.132C737.656 387.132 727.377 397.403 727.377 410.074C727.377 422.744 737.656 433.015 750.335 433.015Z" fill="#F2F2F2"/>
<path id="Vector_11" d="M806.861 569H1.13899C0.837481 568.999 0.548629 568.879 0.33574 568.666C0.122852 568.452 0.0032959 568.163 0.0032959 567.862C0.0032959 567.561 0.122852 567.272 0.33574 567.058C0.548629 566.845 0.837481 566.725 1.13899 566.724H806.861C807.163 566.724 807.453 566.844 807.666 567.057C807.88 567.271 808 567.56 808 567.862C808 568.164 807.88 568.453 807.666 568.667C807.453 568.88 807.163 569 806.861 569V569Z" fill="#3F3D56"/>
<path id="Vector_12" d="M601.162 260.952C617.011 260.952 629.859 248.113 629.859 232.275C629.859 216.438 617.011 203.599 601.162 203.599C585.313 203.599 572.464 216.438 572.464 232.275C572.464 248.113 585.313 260.952 601.162 260.952Z" fill="#2F2E41"/>
<path id="Vector_13" d="M548.132 556.447H536.405L530.826 511.245H548.135L548.132 556.447Z" fill="#A0616A"/>
<path id="Vector_14" d="M528.028 553.098H550.645V567.328H513.788C513.788 565.459 514.156 563.609 514.872 561.883C515.587 560.156 516.636 558.587 517.959 557.266C519.281 555.945 520.851 554.896 522.579 554.181C524.306 553.466 526.158 553.098 528.028 553.098Z" fill="#2F2E41"/>
<path id="Vector_15" d="M639.007 556.447H627.281L621.701 511.245H639.01L639.007 556.447Z" fill="#A0616A"/>
<path id="Vector_16" d="M618.903 553.098H641.521V567.328H604.663C604.663 565.459 605.031 563.609 605.747 561.883C606.462 560.156 607.511 558.587 608.834 557.266C610.156 555.945 611.726 554.896 613.454 554.181C615.181 553.466 617.033 553.098 618.903 553.098V553.098Z" fill="#2F2E41"/>
<path id="Vector_17" d="M596.801 261.119C609.777 261.119 620.295 250.608 620.295 237.642C620.295 224.676 609.777 214.165 596.801 214.165C583.825 214.165 573.306 224.676 573.306 237.642C573.306 250.608 583.825 261.119 596.801 261.119Z" fill="#A0616A"/>
<path id="Vector_18" d="M610.804 336.859L621.317 312.723C623.87 307.06 624.602 300.746 623.411 294.651C622.22 288.556 619.166 282.98 614.669 278.693C613.745 277.781 612.764 276.928 611.732 276.141C606.545 272.086 600.152 269.876 593.567 269.861C589.139 269.878 584.767 270.85 580.749 272.709C580.404 272.862 580.07 273.025 579.725 273.187C579.065 273.503 578.415 273.847 577.783 274.2C573.665 276.563 570.16 279.86 567.552 283.825C564.943 287.79 563.303 292.312 562.765 297.027L558.125 335.874C556.958 338.923 515.328 449.041 529.887 533.111C530.042 534.008 530.48 534.833 531.138 535.464C531.795 536.096 532.637 536.5 533.541 536.619L548.302 538.626C549.379 538.773 550.473 538.507 551.362 537.881C552.251 537.255 552.87 536.316 553.094 535.252L577.86 417.286C578.014 416.554 578.41 415.893 578.984 415.412C579.558 414.93 580.277 414.654 581.026 414.629C581.775 414.604 582.511 414.83 583.116 415.272C583.721 415.714 584.161 416.346 584.364 417.067L619.356 541.121C619.605 542.022 620.144 542.817 620.888 543.383C621.633 543.95 622.543 544.256 623.479 544.256C623.758 544.255 624.037 544.229 624.311 544.18L642.343 540.71C643.391 540.514 644.328 539.934 644.971 539.084C645.613 538.233 645.914 537.173 645.815 536.112C643.166 506.585 629.085 358.681 610.804 336.859Z" fill="#2F2E41"/>
<path id="Vector_19" d="M505.495 257.18C505.332 258.576 505.477 259.99 505.92 261.324C506.363 262.658 507.094 263.878 508.06 264.899C509.026 265.92 510.205 266.717 511.512 267.233C512.82 267.75 514.225 267.974 515.629 267.889L528.762 299.426L538.696 284.711L524.702 257.019C524.403 254.672 523.253 252.516 521.47 250.96C519.687 249.403 517.394 248.555 515.027 248.574C512.659 248.594 510.381 249.481 508.624 251.067C506.868 252.653 505.754 254.828 505.495 257.18L505.495 257.18Z" fill="#A0616A"/>
<path id="Vector_20" d="M595.498 368.613C596.894 368.447 598.237 367.976 599.432 367.235C600.626 366.493 601.644 365.499 602.412 364.322C603.181 363.145 603.682 361.814 603.88 360.423C604.078 359.032 603.968 357.614 603.559 356.27L631.19 336.16L614.555 329.935L590.866 349.986C588.652 350.823 586.821 352.443 585.722 354.539C584.623 356.634 584.331 359.06 584.902 361.356C585.473 363.652 586.867 365.659 588.82 366.996C590.773 368.334 593.149 368.909 595.498 368.613V368.613Z" fill="#A0616A"/>
<path id="Vector_21" d="M550.454 320.451C549.395 320.45 548.338 320.346 547.299 320.14C544.786 319.662 542.429 318.574 540.436 316.971C538.443 315.368 536.875 313.299 535.87 310.948L517.471 288.53C517.082 288.056 516.799 287.504 516.641 286.912C516.483 286.32 516.453 285.701 516.553 285.096C516.654 284.491 516.883 283.915 517.224 283.406C517.566 282.897 518.012 282.466 518.534 282.144L531.624 274.047C532.108 273.748 532.645 273.547 533.207 273.457C533.768 273.367 534.341 273.389 534.894 273.521C535.447 273.653 535.968 273.894 536.427 274.229C536.886 274.563 537.275 274.986 537.57 275.471L550.537 296.82L575.372 278.48C577.349 277.444 579.633 277.153 581.807 277.661C583.981 278.169 585.9 279.442 587.212 281.247C588.525 283.051 589.144 285.268 588.956 287.491C588.769 289.714 587.787 291.795 586.19 293.355L561.404 315.949C558.491 318.834 554.555 320.452 550.454 320.451Z" fill="#2F2E41"/>
<path id="Vector_22" d="M617.559 354.167C617.525 354.167 617.491 354.167 617.457 354.166C616.854 354.152 616.26 354.01 615.714 353.752C615.169 353.493 614.684 353.123 614.29 352.665L602.652 339.098C602.256 338.636 601.962 338.095 601.791 337.511C601.619 336.927 601.573 336.314 601.656 335.711C601.74 335.108 601.95 334.53 602.273 334.014C602.597 333.498 603.026 333.057 603.533 332.72L625.325 318.202L605.583 294.484C604.434 292.571 604.013 290.309 604.396 288.111C604.779 285.913 605.94 283.926 607.668 282.513C609.396 281.1 611.575 280.356 613.807 280.416C616.038 280.476 618.174 281.336 619.824 282.839L643.818 306.27C645.706 307.994 647.148 310.15 648.019 312.554C648.89 314.957 649.165 317.535 648.819 320.068C648.473 322.6 647.518 325.011 646.034 327.093C644.551 329.176 642.584 330.867 640.302 332.022L620.691 352.817C620.289 353.243 619.803 353.582 619.264 353.815C618.726 354.047 618.145 354.167 617.559 354.167Z" fill="#2F2E41"/>
<path id="Vector_23" d="M590.827 304.175C590.64 304.175 590.454 304.164 590.268 304.14C589.458 304.042 588.693 303.713 588.064 303.193C587.435 302.673 586.968 301.984 586.719 301.207L577.974 274.414C577.755 273.736 577.788 273.003 578.069 272.348C578.349 271.694 578.857 271.163 579.498 270.854L579.782 270.72C580.039 270.597 580.294 270.476 580.554 270.361C584.633 268.471 589.072 267.485 593.567 267.471C599.402 267.482 605.108 269.195 609.983 272.4C610.637 272.835 611.093 273.509 611.255 274.277C611.416 275.044 611.269 275.845 610.845 276.505L594.44 302.188C594.055 302.797 593.522 303.3 592.89 303.647C592.258 303.995 591.548 304.177 590.827 304.175V304.175Z" fill="#E6E6E6"/>
<path id="Vector_24" d="M623.787 219.473C628.973 219.473 633.178 215.272 633.178 210.09C633.178 204.907 628.973 200.706 623.787 200.706C618.601 200.706 614.397 204.907 614.397 210.09C614.397 215.272 618.601 219.473 623.787 219.473Z" fill="#2F2E41"/>
<path id="Vector_25" d="M591.596 199.776C585 199.776 578.674 202.394 574.01 207.055C569.345 211.716 566.725 218.037 566.725 224.628V235.143H579.667L585.857 224.628L587.714 235.143H626.99L616.467 224.628C616.467 218.037 613.847 211.716 609.183 207.055C604.518 202.394 598.192 199.776 591.596 199.776V199.776Z" fill="#2F2E41"/>
<path id="Vector_26" d="M628.614 203.662C629.652 200.417 631.802 197.642 634.685 195.825C637.569 194.008 641.001 193.264 644.379 193.725C650.363 194.725 655.095 199.532 657.914 204.901C660.733 210.269 662.035 216.278 663.93 222.038C665.825 227.797 668.513 233.588 673.298 237.316C678.083 241.045 685.425 242.056 690.124 238.221C689.587 242.218 687.806 245.945 685.033 248.875C682.26 251.806 678.636 253.791 674.672 254.55C670.708 255.309 666.606 254.803 662.946 253.105C659.285 251.406 656.252 248.601 654.274 245.085C651.795 240.677 651.154 235.51 650.419 230.507C649.684 225.504 648.729 220.327 645.768 216.226C642.808 212.124 637.266 209.446 632.564 211.314L628.614 203.662Z" fill="#2F2E41"/>
<path id="Vector_27" d="M121.047 556.883L132.773 556.882L138.353 511.68L121.044 511.681L121.047 556.883Z" fill="#FFB8B8"/>
<path id="Vector_28" d="M155.391 567.763L118.534 567.765L118.533 553.535L141.15 553.534C144.927 553.533 148.549 555.032 151.22 557.701C153.891 560.37 155.391 563.989 155.391 567.763V567.763L155.391 567.763Z" fill="#2F2E41"/>
<path id="Vector_29" d="M78.9571 556.883L90.6838 556.882L96.2636 511.68L78.9542 511.681L78.9571 556.883Z" fill="#FFB8B8"/>
<path id="Vector_30" d="M113.302 567.763L76.4441 567.765L76.4435 553.535L99.0607 553.534C102.838 553.533 106.46 555.032 109.13 557.701C111.801 560.37 113.302 563.989 113.302 567.763V567.763L113.302 567.763Z" fill="#2F2E41"/>
<path id="Vector_31" d="M89.2052 542.981L77.7502 542.379C77.1595 542.348 76.5809 542.2 76.0478 541.944C75.5147 541.688 75.0378 541.328 74.6447 540.887C74.2515 540.445 73.95 539.93 73.7576 539.371C73.5651 538.812 73.4856 538.221 73.5235 537.631L87.2148 386.156L150.264 403.157L156.338 401.501L137.342 535.597C137.181 536.605 136.679 537.529 135.921 538.214C135.163 538.9 134.194 539.307 133.173 539.367L120.825 539.942C120.208 539.976 119.59 539.882 119.011 539.666C118.431 539.449 117.903 539.115 117.46 538.684C117.017 538.253 116.668 537.735 116.435 537.163C116.202 536.59 116.091 535.976 116.108 535.358L118.345 454.876C118.356 454.504 118.226 454.142 117.982 453.86C117.739 453.579 117.398 453.398 117.028 453.355C116.658 453.312 116.285 453.409 115.983 453.627C115.681 453.845 115.471 454.168 115.396 454.532L93.8183 539.426C93.6146 540.434 93.0676 541.339 92.2706 541.989C91.4736 542.638 90.4759 542.991 89.4475 542.988C89.3673 542.988 89.2865 542.986 89.2052 542.981Z" fill="#2F2E41"/>
<path id="Vector_32" d="M123.152 262.217C136.128 262.217 146.647 251.706 146.647 238.74C146.647 225.774 136.128 215.263 123.152 215.263C110.176 215.263 99.6575 225.774 99.6575 238.74C99.6575 251.706 110.176 262.217 123.152 262.217Z" fill="#FFB8B8"/>
<path id="Vector_33" d="M84.0352 307.715L86.6185 363.412L87.5524 383.676C87.5896 384.558 87.8893 385.409 88.4132 386.12C88.9371 386.831 89.6613 387.369 90.4932 387.667L151.079 409.598C151.569 409.78 152.087 409.871 152.609 409.866C153.206 409.869 153.797 409.752 154.348 409.521C154.898 409.291 155.396 408.952 155.813 408.524C156.229 408.097 156.555 407.591 156.771 407.035C156.987 406.479 157.089 405.885 157.071 405.289L154.587 305.144C154.423 296.928 151.397 289.026 146.028 282.8C140.66 276.575 133.286 272.416 125.178 271.041C124.592 270.952 123.996 270.862 123.399 270.783C118.372 270.159 113.268 270.644 108.448 272.203C103.628 273.762 99.2088 276.358 95.5007 279.808C91.661 283.336 88.6439 287.665 86.6627 292.488C84.6815 297.31 83.7845 302.508 84.0352 307.715L84.0352 307.715Z" fill="#CCCCCC"/>
<path id="Vector_34" d="M180.021 398.484C178.588 398.04 177.279 397.267 176.198 396.227C175.117 395.187 174.294 393.91 173.795 392.496C173.296 391.082 173.135 389.571 173.324 388.083C173.514 386.596 174.048 385.174 174.885 383.929L154.34 356.63L172.069 355.533L188.862 381.626C190.659 383.015 191.91 384.992 192.395 387.21C192.88 389.428 192.567 391.746 191.513 393.758C190.458 395.769 188.728 397.345 186.627 398.209C184.526 399.074 182.187 399.171 180.021 398.484H180.021Z" fill="#FFB8B8"/>
<path id="Vector_35" d="M165.575 378.989C165.031 378.768 164.536 378.442 164.119 378.029C163.702 377.616 163.371 377.124 163.145 376.582L132.191 302.889C131.584 301.446 131.267 299.898 131.259 298.332C131.251 296.767 131.551 295.215 132.143 293.766C132.735 292.317 133.608 290.999 134.71 289.887C135.812 288.774 137.123 287.89 138.567 287.284C140.011 286.679 141.561 286.363 143.128 286.356C144.694 286.349 146.246 286.651 147.696 287.243C149.146 287.836 150.465 288.709 151.577 289.811C152.689 290.913 153.573 292.224 154.178 293.667L185.131 367.361C185.589 368.454 185.594 369.683 185.145 370.78C184.697 371.876 183.832 372.75 182.739 373.21L168.998 378.973C168.457 379.202 167.876 379.321 167.288 379.324C166.701 379.326 166.119 379.213 165.575 378.989L165.575 378.989Z" fill="#CCCCCC"/>
<path id="Vector_36" d="M115.598 376.39L145.328 319.506C145.902 318.412 146.886 317.59 148.065 317.221C149.244 316.851 150.522 316.964 151.618 317.534L194.77 340.055C195.865 340.628 196.688 341.611 197.058 342.789C197.428 343.968 197.315 345.244 196.744 346.34L167.014 403.223C166.441 404.317 165.457 405.139 164.278 405.509C163.099 405.879 161.821 405.766 160.725 405.195L117.572 382.675C116.477 382.102 115.655 381.118 115.285 379.94C114.915 378.762 115.028 377.485 115.598 376.39Z" fill="#3F3D56"/>
<path id="Vector_37" d="M135.536 350.401C135.008 348.998 134.158 347.738 133.056 346.721C131.953 345.704 130.628 344.959 129.186 344.545C127.744 344.13 126.225 344.059 124.751 344.335C123.276 344.612 121.887 345.229 120.693 346.138L92.2075 327.255L92.1591 345.006L119.217 360.215C120.71 361.927 122.759 363.058 125.004 363.41C127.249 363.763 129.546 363.314 131.493 362.144C133.44 360.973 134.912 359.154 135.652 357.007C136.391 354.86 136.35 352.521 135.536 350.401V350.401Z" fill="#FFB8B8"/>
<path id="Vector_38" d="M99.521 354.393L76.2409 335.966C73.7225 335.121 71.4468 333.678 69.6094 331.76C67.7719 329.843 66.4275 327.509 65.6915 324.958C64.9556 322.407 64.85 319.716 65.384 317.115C65.918 314.515 67.0755 312.083 68.7572 310.028L89.8949 282.346C91.3638 280.552 93.4296 279.347 95.7147 278.95C97.9998 278.553 100.352 278.991 102.34 280.184C104.329 281.377 105.821 283.245 106.545 285.447C107.268 287.649 107.174 290.038 106.281 292.176L89.556 319.515L114.134 331.164C114.706 331.435 115.213 331.824 115.623 332.305C116.033 332.786 116.336 333.349 116.513 333.956C116.689 334.564 116.734 335.201 116.645 335.827C116.556 336.453 116.336 337.053 115.998 337.587L106.077 353.277C105.741 353.806 105.298 354.26 104.776 354.607C104.255 354.955 103.665 355.189 103.047 355.295C103.023 355.299 102.998 355.303 102.973 355.307C102.366 355.398 101.746 355.365 101.152 355.207C100.559 355.05 100.003 354.773 99.521 354.393V354.393Z" fill="#CCCCCC"/>
<path id="Vector_39" d="M105.399 254.461C105.298 254.166 105.266 253.852 105.305 253.543C105.345 253.234 105.454 252.939 105.626 252.679C105.797 252.418 106.026 252.201 106.294 252.043C106.563 251.885 106.864 251.79 107.175 251.766C107.811 251.801 108.434 251.964 109.005 252.246C109.577 252.527 110.085 252.922 110.5 253.406C111.35 254.385 112.34 255.235 113.438 255.926C114.574 256.499 116.116 256.417 116.764 255.326C117.372 254.301 116.955 252.928 116.587 251.738C115.65 248.709 115.125 245.568 115.028 242.399C114.922 238.862 115.421 235.171 117.381 232.412C119.91 228.851 124.432 227.5 128.712 227.598C132.991 227.696 137.202 229.016 141.441 229.85C142.905 230.138 144.625 230.286 145.604 229.152C146.644 227.947 146.262 225.997 145.819 224.369C144.671 220.147 143.452 215.781 140.783 212.371C137.897 208.827 133.774 206.508 129.246 205.88C124.898 205.342 120.484 205.843 116.368 207.341C109.661 209.454 103.76 213.562 99.4528 219.116C95.013 225.023 93.0945 232.447 94.1169 239.764C95.1157 246.136 98.4949 251.893 103.573 255.875L105.399 254.461Z" fill="#2F2E41"/>
<g id="question-mark">
<path id="Vector_40" d="M412.662 567.794C436.964 567.794 456.665 548.108 456.665 523.824C456.665 499.539 436.964 479.853 412.662 479.853C388.36 479.853 368.659 499.539 368.659 523.824C368.659 548.108 388.36 567.794 412.662 567.794Z" fill="#F68B1E"/>
<path id="Vector_41" d="M407.948 65.0033C339.178 65.4887 282.87 121.333 281.893 190.048C281.884 190.683 281.88 195.144 281.88 200.978C281.881 209.533 285.281 217.737 291.335 223.786C297.388 229.835 305.598 233.234 314.159 233.235H314.159C318.403 233.234 322.605 232.398 326.525 230.774C330.445 229.149 334.006 226.769 337.005 223.769C340.005 220.768 342.383 217.207 344.004 213.288C345.625 209.369 346.458 205.169 346.454 200.929C346.451 196.96 346.449 194.213 346.449 194.044C346.447 183.424 349.211 172.987 354.47 163.758C359.729 154.53 367.301 146.828 376.443 141.412C385.584 135.995 395.978 133.049 406.604 132.864C417.23 132.679 427.721 135.261 437.046 140.357C446.37 145.452 454.206 152.886 459.784 161.926C465.361 170.965 468.487 181.3 468.855 191.914C469.223 202.527 466.82 213.054 461.882 222.457C456.943 231.861 449.641 239.818 440.691 245.546L440.703 245.56C440.703 245.56 394.76 275.116 380.753 315.66L380.765 315.663C378.302 323.969 377.054 332.587 377.059 341.25C377.059 344.811 377.269 375.969 377.674 401.258C377.816 409.984 381.385 418.304 387.61 424.424C393.836 430.544 402.22 433.973 410.954 433.971H410.954C415.342 433.97 419.687 433.103 423.738 431.419C427.79 429.734 431.468 427.266 434.561 424.156C437.655 421.045 440.102 417.354 441.763 413.296C443.423 409.237 444.264 404.89 444.237 400.505C444.096 377.344 444.02 350.376 444.02 348.419C444.02 323.523 468.054 298.718 487.797 282.542C510.531 263.915 526.89 238.531 533.461 209.896C534.915 204.001 535.717 197.964 535.852 191.893C535.852 175.152 532.537 158.577 526.098 143.122C519.658 127.667 510.223 113.638 498.334 101.843C486.444 90.0478 472.337 80.7204 456.825 74.3978C441.312 68.0752 424.701 64.8823 407.948 65.0033V65.0033Z" fill="#F68B1E"/>
<path id="Vector_42" d="M323.273 217.978C314.712 217.977 306.502 214.578 300.449 208.529C294.395 202.479 290.995 194.275 290.994 185.721C290.994 179.886 290.998 175.425 291.007 174.791C291.279 154.807 296.315 135.175 305.699 117.525C290.282 138.615 281.805 163.971 281.441 190.085C281.432 190.719 281.428 195.18 281.428 201.015C281.429 209.569 284.83 217.774 290.883 223.823C296.936 229.872 305.146 233.271 313.707 233.272V233.272C320.742 233.269 327.584 230.972 333.193 226.73C338.802 222.487 342.872 216.531 344.784 209.766C338.874 215.063 331.212 217.987 323.273 217.978V217.978Z" fill="#3F3D56"/>
<path id="Vector_43" d="M410.136 132.972C420.033 133.444 429.668 136.31 438.212 141.323C446.757 146.335 453.956 153.345 459.193 161.751C464.429 170.156 467.545 179.706 468.274 189.58C469.004 199.454 467.324 209.358 463.379 218.44C469.085 211.744 473.279 203.897 475.675 195.434C478.071 186.972 478.612 178.092 477.263 169.401C475.913 160.71 472.704 152.412 467.854 145.073C463.004 137.734 456.628 131.526 449.16 126.872C441.691 122.219 433.307 119.229 424.577 118.107C415.848 116.985 406.979 117.758 398.575 120.371C390.171 122.985 382.431 127.379 375.88 133.253C369.33 139.127 364.124 146.344 360.618 154.41C366.678 147.287 374.294 141.649 382.88 137.932C391.466 134.215 400.791 132.518 410.136 132.972V132.972Z" fill="#3F3D56"/>
<path id="Vector_44" d="M420.068 418.713C411.334 418.715 402.95 415.286 396.724 409.166C390.499 403.047 386.93 394.726 386.788 386.001C386.383 360.711 386.173 329.554 386.173 325.993C386.168 317.33 387.416 308.711 389.879 300.406L389.867 300.403C391.322 296.234 393.078 292.176 395.123 288.262C388.846 296.621 383.851 305.867 380.301 315.697L380.313 315.7C377.85 324.006 376.602 332.624 376.608 341.287C376.608 344.848 376.817 376.006 377.222 401.295C377.364 410.02 380.933 418.341 387.159 424.461C393.385 430.58 401.769 434.009 410.502 434.007V434.007C417.702 434.006 424.709 431.672 430.469 427.355C436.23 423.038 440.435 416.971 442.453 410.064C436.334 415.639 428.349 418.725 420.068 418.713V418.713Z" fill="#3F3D56"/>
<path id="Vector_45" d="M402.967 557.069C396.716 554.349 391.184 550.214 386.806 544.991C382.428 539.767 379.325 533.599 377.742 526.973C376.158 520.346 376.138 513.442 377.682 506.806C379.226 500.17 382.292 493.983 386.638 488.734C381.599 492.411 377.4 497.117 374.319 502.539C371.239 507.961 369.348 513.976 368.772 520.185C368.196 526.393 368.948 532.653 370.978 538.549C373.008 544.445 376.27 549.842 380.547 554.382C384.824 558.922 390.018 562.501 395.785 564.881C401.552 567.262 407.76 568.39 413.996 568.189C420.233 567.989 426.355 566.466 431.958 563.721C437.56 560.975 442.514 557.071 446.49 552.266C440.288 556.796 433.006 559.623 425.37 560.466C417.733 561.309 410.01 560.137 402.967 557.069V557.069Z" fill="#3F3D56"/>
</g>
</g>
<defs>
<clipPath id="clip0">
<rect width="808" height="569" fill="white"/>
</clipPath>
</defs>
</svg>
