<svg width="24" height="24" viewBox="0 0 24 24" fill="none" xmlns="http://www.w3.org/2000/svg">
<path d="M16.971 0H7.029L0 7.029V16.97L7.029 24H16.97L24 16.971V7.029L16.971 0ZM12 19.25C11.31 19.25 10.75 18.69 10.75 18C10.75 17.31 11.31 16.75 12 16.75C12.69 16.75 13.25 17.31 13.25 18C13.25 18.69 12.69 19.25 12 19.25ZM12.55 14.502C12.521 14.785 12.284 15 12 15C11.716 15 11.479 14.785 11.45 14.502L10.649 6.492C10.569 5.692 11.199 5 12 5C12.801 5 13.431 5.692 13.351 6.493L12.55 14.502Z" fill="#EF0C0C"/>
</svg>
